# Blender v2.77 (sub 0) OBJ File: ''
# www.blender.org
o Sphere_Sphere.001
v -0.258819 0.965926 0.000000
v -0.500000 0.866025 0.000000
v -0.707107 0.707107 0.000000
v -0.243210 0.965926 -0.088521
v -0.469846 0.866025 -0.171010
v -0.664463 0.707107 -0.241845
v -0.813798 0.500000 -0.296198
v -0.907673 0.258819 -0.330366
v -0.939693 0.000000 -0.342020
v -0.198267 0.965926 -0.166365
v -0.383022 0.866025 -0.321394
v -0.541675 0.707107 -0.454519
v -0.663414 0.500000 -0.556670
v -0.739942 0.258819 -0.620885
v -0.766044 0.000000 -0.642787
v -0.129410 0.965926 -0.224144
v -0.250000 0.866025 -0.433012
v -0.353554 0.707107 -0.612372
v -0.433013 0.500000 -0.750000
v -0.482963 0.258819 -0.836516
v -0.500000 0.000000 -0.866025
v -0.044944 0.965926 -0.254887
v -0.086824 0.866025 -0.492404
v -0.122788 0.707107 -0.696364
v -0.150384 0.500000 -0.852868
v -0.167732 0.258819 -0.951251
v -0.173649 0.000000 -0.984807
v 0.044943 0.965926 -0.254887
v 0.086824 0.866025 -0.492404
v 0.122787 0.707107 -0.696364
v 0.150383 0.500000 -0.852868
v 0.167731 0.258819 -0.951251
v 0.173648 0.000000 -0.984807
v 0.129409 0.965926 -0.224144
v 0.249999 0.866025 -0.433012
v 0.353553 0.707107 -0.612372
v 0.433012 0.500000 -0.750000
v 0.482962 0.258819 -0.836516
v 0.499999 0.000000 -0.866025
v -0.000001 1.000000 0.000000
v 0.198266 0.965926 -0.166365
v 0.383022 0.866025 -0.321394
v 0.541674 0.707107 -0.454519
v 0.663413 0.500000 -0.556670
v 0.739941 0.258819 -0.620885
v 0.766044 0.000000 -0.642788
v 0.243210 0.965926 -0.088521
v 0.469846 0.866025 -0.171010
v 0.664462 0.707107 -0.241845
v 0.813797 0.500000 -0.296198
v 0.907673 0.258819 -0.330366
v 0.939692 0.000000 -0.342020
v 0.258818 0.965926 -0.000000
v 0.499999 0.866025 -0.000000
v 0.707106 0.707107 -0.000000
v 0.866025 0.500000 -0.000000
v 0.965925 0.258819 -0.000000
v 0.999999 0.000000 -0.000000
v 0.243210 0.965926 0.088521
v 0.469846 0.866025 0.171010
v 0.664462 0.707107 0.241845
v 0.813797 0.500000 0.296198
v 0.907673 0.258819 0.330366
v 0.939692 0.000000 0.342020
v 0.198266 0.965926 0.166365
v 0.383022 0.866025 0.321393
v 0.541675 0.707107 0.454519
v 0.663413 0.500000 0.556670
v 0.739942 0.258819 0.620885
v 0.766044 0.000000 0.642787
v 0.129409 0.965926 0.224143
v 0.249999 0.866025 0.433012
v 0.353553 0.707107 0.612372
v 0.433012 0.500000 0.750000
v 0.482963 0.258819 0.836516
v 0.500000 0.000000 0.866025
v 0.044943 0.965926 0.254887
v 0.086824 0.866025 0.492403
v 0.122787 0.707107 0.696364
v 0.150383 0.500000 0.852868
v 0.167731 0.258819 0.951251
v 0.173648 0.000000 0.984807
v -0.044944 0.965926 0.254887
v -0.086824 0.866025 0.492403
v -0.122788 0.707107 0.696364
v -0.150384 0.500000 0.852868
v -0.167731 0.258819 0.951251
v -0.173648 0.000000 0.984808
v -0.129410 0.965926 0.224144
v -0.250000 0.866025 0.433012
v -0.353553 0.707107 0.612372
v -0.433013 0.500000 0.750000
v -0.482963 0.258819 0.836516
v -0.500000 0.000000 0.866025
v -0.198267 0.965926 0.166365
v -0.383022 0.866025 0.321394
v -0.541675 0.707107 0.454519
v -0.663414 0.500000 0.556670
v -0.739942 0.258819 0.620885
v -0.766044 0.000000 0.642788
v -0.243210 0.965926 0.088521
v -0.469846 0.866025 0.171010
v -0.664463 0.707107 0.241845
v -0.813798 0.500000 0.296198
v -0.907673 0.258819 0.330366
v -0.939693 0.000000 0.342020
v -0.866025 0.500000 0.000000
v -0.965926 0.258819 0.000000
v -1.000000 0.000000 0.000000
vt 0.4254 0.5122
vt 0.4901 0.5007
vt 0.4332 0.5337
vt 0.2092 0.5517
vt 0.1604 0.6901
vt 0.1157 0.5668
vt 0.3588 0.5245
vt 0.3754 0.5679
vt 0.0580 0.7475
vt 0.0001 0.5860
vt 0.3131 0.6042
vt 0.2876 0.5374
vt 0.2432 0.6440
vt 0.1677 0.8803
vt 0.3595 0.6584
vt 0.3070 0.7197
vt 0.4479 0.5511
vt 0.2447 0.7913
vt 0.4056 0.6027
vt 0.3586 0.8579
vt 0.4676 0.5625
vt 0.4452 0.6257
vt 0.3164 0.9681
vt 0.4216 0.6937
vt 0.3929 0.7693
vt 0.4906 0.7865
vt 0.4901 0.5665
vt 0.4886 0.8817
vt 0.4906 0.6337
vt 0.4866 0.9999
vt 0.4918 0.7057
vt 0.6577 0.9716
vt 0.5360 0.6256
vt 0.5618 0.6929
vt 0.5884 0.7694
vt 0.5126 0.5626
vt 0.6191 0.8597
vt 0.7344 0.7942
vt 0.5325 0.5512
vt 0.5760 0.6025
vt 0.8090 0.8863
vt 0.6233 0.6569
vt 0.6745 0.7198
vt 0.7385 0.6436
vt 0.5473 0.5337
vt 0.8203 0.6930
vt 0.6056 0.5671
vt 0.9222 0.7541
vt 0.6688 0.6020
vt 0.9834 0.5908
vt 0.6213 0.5236
vt 0.6927 0.5348
vt 0.7725 0.5499
vt 0.5549 0.5121
vt 0.8665 0.5683
vt 0.5550 0.4892
vt 0.8670 0.4351
vt 0.6212 0.4773
vt 0.9848 0.4160
vt 0.6921 0.4635
vt 0.7723 0.4502
vt 0.7378 0.3565
vt 0.5473 0.4676
vt 0.8216 0.3097
vt 0.6054 0.4340
vt 0.9257 0.2510
vt 0.6670 0.3968
vt 0.5757 0.3988
vt 0.8130 0.1164
vt 0.6206 0.3434
vt 0.6730 0.2801
vt 0.5324 0.4501
vt 0.7356 0.2074
vt 0.5125 0.4388
vt 0.6197 0.1411
vt 0.5357 0.3756
vt 0.6609 0.0293
vt 0.5596 0.3078
vt 0.5859 0.2308
vt 0.4901 0.3674
vt 0.4897 0.2956
vt 0.4877 0.2145
vt 0.4899 0.4349
vt 0.4885 0.1189
vt 0.4887 0.0001
vt 0.4447 0.3761
vt 0.3177 0.0317
vt 0.4196 0.3083
vt 0.3900 0.2329
vt 0.4675 0.4390
vt 0.3581 0.1430
vt 0.3580 0.3441
vt 0.3046 0.2835
vt 0.4478 0.4505
vt 0.2440 0.2101
vt 0.4044 0.3989
vt 0.1683 0.1196
vt 0.3124 0.3989
vt 0.2417 0.3600
vt 0.4331 0.4680
vt 0.1599 0.3117
vt 0.3752 0.4347
vt 0.0582 0.2526
vt 0.1155 0.4356
vt 0.3592 0.4780
vt 0.0001 0.4145
vt 0.2880 0.4660
vt 0.2085 0.4533
vt 0.4254 0.4895
vn -0.1305 0.9912 -0.0230
vn -0.9119 0.3777 -0.1608
vn -0.3818 0.9218 -0.0673
vn -0.9766 0.1286 -0.1722
vn -0.6053 0.7888 -0.1067
vn -0.7857 0.6029 -0.1385
vn -0.8588 0.1286 -0.4958
vn -0.5323 0.7888 -0.3073
vn -0.6909 0.6029 -0.3989
vn -0.1148 0.9912 -0.0663
vn -0.8019 0.3777 -0.4630
vn -0.3358 0.9218 -0.1939
vn -0.5952 0.3777 -0.7093
vn -0.2492 0.9218 -0.2970
vn -0.6375 0.1286 -0.7597
vn -0.3951 0.7888 -0.4708
vn -0.5128 0.6029 -0.6112
vn -0.0852 0.9912 -0.1015
vn -0.2729 0.6029 -0.7497
vn -0.0453 0.9912 -0.1245
vn -0.3167 0.3777 -0.8701
vn -0.1326 0.9218 -0.3643
vn -0.3392 0.1286 -0.9319
vn -0.2102 0.7888 -0.5776
vn 0.0000 0.1286 -0.9917
vn 0.0000 0.7888 -0.6146
vn 0.0000 0.6029 -0.7978
vn -0.0000 0.9912 -0.1325
vn 0.0000 0.3777 -0.9259
vn 0.0000 0.9218 -0.3877
vn 0.3167 0.3777 -0.8701
vn 0.1326 0.9218 -0.3643
vn 0.3392 0.1286 -0.9319
vn 0.2102 0.7888 -0.5776
vn 0.2729 0.6029 -0.7497
vn 0.0453 0.9912 -0.1245
vn 0.5128 0.6029 -0.6112
vn 0.0852 0.9912 -0.1015
vn 0.5952 0.3777 -0.7093
vn 0.2492 0.9218 -0.2970
vn 0.6375 0.1286 -0.7597
vn 0.3951 0.7888 -0.4708
vn 0.8588 0.1286 -0.4959
vn 0.5323 0.7888 -0.3073
vn 0.6909 0.6029 -0.3989
vn 0.1148 0.9912 -0.0663
vn 0.8019 0.3777 -0.4630
vn 0.3358 0.9218 -0.1939
vn 0.1305 0.9912 -0.0230
vn 0.9119 0.3777 -0.1608
vn 0.3818 0.9218 -0.0673
vn 0.9766 0.1286 -0.1722
vn 0.6053 0.7888 -0.1067
vn 0.7857 0.6029 -0.1385
vn 0.7857 0.6029 0.1385
vn 0.1305 0.9912 0.0230
vn 0.9119 0.3777 0.1608
vn 0.3818 0.9218 0.0673
vn 0.9766 0.1286 0.1722
vn 0.6053 0.7888 0.1067
vn 0.3358 0.9218 0.1939
vn 0.8588 0.1286 0.4958
vn 0.5323 0.7888 0.3073
vn 0.6909 0.6029 0.3989
vn 0.1148 0.9912 0.0663
vn 0.8019 0.3777 0.4630
vn 0.0852 0.9912 0.1015
vn 0.5952 0.3777 0.7093
vn 0.2492 0.9218 0.2970
vn 0.6375 0.1286 0.7597
vn 0.3951 0.7888 0.4708
vn 0.5128 0.6029 0.6112
vn 0.2102 0.7888 0.5776
vn 0.2729 0.6029 0.7497
vn 0.0453 0.9912 0.1245
vn 0.3167 0.3777 0.8701
vn 0.1326 0.9218 0.3643
vn 0.3392 0.1286 0.9319
vn 0.0000 0.9218 0.3877
vn 0.0000 0.1286 0.9917
vn 0.0000 0.7888 0.6146
vn 0.0000 0.6029 0.7978
vn 0.0000 0.9912 0.1325
vn 0.0000 0.3777 0.9259
vn -0.2729 0.6029 0.7497
vn -0.0453 0.9912 0.1245
vn -0.3167 0.3777 0.8701
vn -0.1326 0.9218 0.3643
vn -0.3392 0.1286 0.9319
vn -0.2102 0.7888 0.5776
vn -0.3951 0.7888 0.4708
vn -0.5128 0.6029 0.6112
vn -0.0852 0.9912 0.1015
vn -0.5952 0.3777 0.7093
vn -0.2492 0.9218 0.2970
vn -0.6375 0.1286 0.7597
vn -0.8019 0.3777 0.4630
vn -0.3358 0.9218 0.1939
vn -0.8588 0.1286 0.4959
vn -0.5323 0.7888 0.3073
vn -0.6909 0.6029 0.3989
vn -0.1148 0.9912 0.0663
vn -0.7857 0.6029 0.1385
vn -0.1305 0.9912 0.0230
vn -0.9119 0.3777 0.1608
vn -0.3818 0.9218 0.0673
vn -0.9766 0.1286 0.1722
vn -0.6053 0.7888 0.1067
vn 0.8588 0.1286 -0.4958
vn -0.8588 0.1286 0.4958
s off
f 1/1/1 40/2/1 4/3/1
f 107/4/2 8/5/2 108/6/2
f 2/7/3 4/3/3 5/8/3
f 108/6/4 9/9/4 109/10/4
f 2/7/5 6/11/5 3/12/5
f 3/12/6 7/13/6 107/4/6
f 8/5/7 15/14/7 9/9/7
f 5/8/8 12/15/8 6/11/8
f 6/11/9 13/16/9 7/13/9
f 4/3/10 40/2/10 10/17/10
f 7/13/11 14/18/11 8/5/11
f 5/8/12 10/17/12 11/19/12
f 13/16/13 20/20/13 14/18/13
f 11/19/14 16/21/14 17/22/14
f 14/18/15 21/23/15 15/14/15
f 12/15/16 17/22/16 18/24/16
f 12/15/17 19/25/17 13/16/17
f 10/17/18 40/2/18 16/21/18
f 18/24/19 25/26/19 19/25/19
f 16/21/20 40/2/20 22/27/20
f 19/25/21 26/28/21 20/20/21
f 17/22/22 22/27/22 23/29/22
f 20/20/23 27/30/23 21/23/23
f 18/24/24 23/29/24 24/31/24
f 26/28/25 33/32/25 27/30/25
f 24/31/26 29/33/26 30/34/26
f 24/31/27 31/35/27 25/26/27
f 22/27/28 40/2/28 28/36/28
f 25/26/29 32/37/29 26/28/29
f 23/29/30 28/36/30 29/33/30
f 31/35/31 38/38/31 32/37/31
f 29/33/32 34/39/32 35/40/32
f 32/37/33 39/41/33 33/32/33
f 30/34/34 35/40/34 36/42/34
f 30/34/35 37/43/35 31/35/35
f 28/36/36 40/2/36 34/39/36
f 36/42/37 44/44/37 37/43/37
f 34/39/38 40/2/38 41/45/38
f 37/43/39 45/46/39 38/38/39
f 35/40/40 41/45/40 42/47/40
f 38/38/41 46/48/41 39/41/41
f 36/42/42 42/47/42 43/49/42
f 45/46/43 52/50/43 46/48/43
f 43/49/44 48/51/44 49/52/44
f 43/49/45 50/53/45 44/44/45
f 41/45/46 40/2/46 47/54/46
f 44/44/47 51/55/47 45/46/47
f 41/45/48 48/51/48 42/47/48
f 47/54/49 40/2/49 53/56/49
f 50/53/50 57/57/50 51/55/50
f 48/51/51 53/56/51 54/58/51
f 51/55/52 58/59/52 52/50/52
f 49/52/53 54/58/53 55/60/53
f 49/52/54 56/61/54 50/53/54
f 55/60/55 62/62/55 56/61/55
f 53/56/56 40/2/56 59/63/56
f 56/61/57 63/64/57 57/57/57
f 54/58/58 59/63/58 60/65/58
f 57/57/59 64/66/59 58/59/59
f 55/60/60 60/65/60 61/67/60
f 59/63/61 66/68/61 60/65/61
f 63/64/62 70/69/62 64/66/62
f 61/67/63 66/68/63 67/70/63
f 61/67/64 68/71/64 62/62/64
f 59/63/65 40/2/65 65/72/65
f 62/62/66 69/73/66 63/64/66
f 65/72/67 40/2/67 71/74/67
f 68/71/68 75/75/68 69/73/68
f 65/72/69 72/76/69 66/68/69
f 69/73/70 76/77/70 70/69/70
f 67/70/71 72/76/71 73/78/71
f 68/71/72 73/78/72 74/79/72
f 73/78/73 78/80/73 79/81/73
f 74/79/74 79/81/74 80/82/74
f 71/74/75 40/2/75 77/83/75
f 74/79/76 81/84/76 75/75/76
f 71/74/77 78/80/77 72/76/77
f 75/75/78 82/85/78 76/77/78
f 77/83/79 84/86/79 78/80/79
f 81/84/80 88/87/80 82/85/80
f 78/80/81 85/88/81 79/81/81
f 80/82/82 85/88/82 86/89/82
f 77/83/83 40/2/83 83/90/83
f 80/82/84 87/91/84 81/84/84
f 86/89/85 91/92/85 92/93/85
f 83/90/86 40/2/86 89/94/86
f 86/89/87 93/95/87 87/91/87
f 83/90/88 90/96/88 84/86/88
f 87/91/89 94/97/89 88/87/89
f 85/88/90 90/96/90 91/92/90
f 90/96/91 97/98/91 91/92/91
f 92/93/92 97/98/92 98/99/92
f 89/94/93 40/2/93 95/100/93
f 92/93/94 99/101/94 93/95/94
f 90/96/95 95/100/95 96/102/95
f 93/95/96 100/103/96 94/97/96
f 98/99/97 105/104/97 99/101/97
f 95/100/98 102/105/98 96/102/98
f 99/101/99 106/106/99 100/103/99
f 97/98/100 102/105/100 103/107/100
f 98/99/101 103/107/101 104/108/101
f 95/100/102 40/2/102 101/109/102
f 104/108/103 3/12/103 107/4/103
f 101/109/104 40/2/104 1/1/104
f 104/108/105 108/6/105 105/104/105
f 102/105/106 1/1/106 2/7/106
f 105/104/107 109/10/107 106/106/107
f 103/107/108 2/7/108 3/12/108
f 107/4/2 7/13/2 8/5/2
f 2/7/3 1/1/3 4/3/3
f 108/6/4 8/5/4 9/9/4
f 2/7/5 5/8/5 6/11/5
f 3/12/6 6/11/6 7/13/6
f 8/5/7 14/18/7 15/14/7
f 5/8/8 11/19/8 12/15/8
f 6/11/9 12/15/9 13/16/9
f 7/13/11 13/16/11 14/18/11
f 5/8/12 4/3/12 10/17/12
f 13/16/13 19/25/13 20/20/13
f 11/19/14 10/17/14 16/21/14
f 14/18/15 20/20/15 21/23/15
f 12/15/16 11/19/16 17/22/16
f 12/15/17 18/24/17 19/25/17
f 18/24/19 24/31/19 25/26/19
f 19/25/21 25/26/21 26/28/21
f 17/22/22 16/21/22 22/27/22
f 20/20/23 26/28/23 27/30/23
f 18/24/24 17/22/24 23/29/24
f 26/28/25 32/37/25 33/32/25
f 24/31/26 23/29/26 29/33/26
f 24/31/27 30/34/27 31/35/27
f 25/26/29 31/35/29 32/37/29
f 23/29/30 22/27/30 28/36/30
f 31/35/31 37/43/31 38/38/31
f 29/33/32 28/36/32 34/39/32
f 32/37/33 38/38/33 39/41/33
f 30/34/34 29/33/34 35/40/34
f 30/34/35 36/42/35 37/43/35
f 36/42/37 43/49/37 44/44/37
f 37/43/39 44/44/39 45/46/39
f 35/40/40 34/39/40 41/45/40
f 38/38/41 45/46/41 46/48/41
f 36/42/42 35/40/42 42/47/42
f 45/46/109 51/55/109 52/50/109
f 43/49/44 42/47/44 48/51/44
f 43/49/45 49/52/45 50/53/45
f 44/44/47 50/53/47 51/55/47
f 41/45/48 47/54/48 48/51/48
f 50/53/50 56/61/50 57/57/50
f 48/51/51 47/54/51 53/56/51
f 51/55/52 57/57/52 58/59/52
f 49/52/53 48/51/53 54/58/53
f 49/52/54 55/60/54 56/61/54
f 55/60/55 61/67/55 62/62/55
f 56/61/57 62/62/57 63/64/57
f 54/58/58 53/56/58 59/63/58
f 57/57/59 63/64/59 64/66/59
f 55/60/60 54/58/60 60/65/60
f 59/63/61 65/72/61 66/68/61
f 63/64/62 69/73/62 70/69/62
f 61/67/63 60/65/63 66/68/63
f 61/67/64 67/70/64 68/71/64
f 62/62/66 68/71/66 69/73/66
f 68/71/68 74/79/68 75/75/68
f 65/72/69 71/74/69 72/76/69
f 69/73/70 75/75/70 76/77/70
f 67/70/71 66/68/71 72/76/71
f 68/71/72 67/70/72 73/78/72
f 73/78/73 72/76/73 78/80/73
f 74/79/74 73/78/74 79/81/74
f 74/79/76 80/82/76 81/84/76
f 71/74/77 77/83/77 78/80/77
f 75/75/78 81/84/78 82/85/78
f 77/83/79 83/90/79 84/86/79
f 81/84/80 87/91/80 88/87/80
f 78/80/81 84/86/81 85/88/81
f 80/82/82 79/81/82 85/88/82
f 80/82/84 86/89/84 87/91/84
f 86/89/85 85/88/85 91/92/85
f 86/89/87 92/93/87 93/95/87
f 83/90/88 89/94/88 90/96/88
f 87/91/89 93/95/89 94/97/89
f 85/88/90 84/86/90 90/96/90
f 90/96/91 96/102/91 97/98/91
f 92/93/92 91/92/92 97/98/92
f 92/93/94 98/99/94 99/101/94
f 90/96/95 89/94/95 95/100/95
f 93/95/96 99/101/96 100/103/96
f 98/99/97 104/108/97 105/104/97
f 95/100/98 101/109/98 102/105/98
f 99/101/110 105/104/110 106/106/110
f 97/98/100 96/102/100 102/105/100
f 98/99/101 97/98/101 103/107/101
f 104/108/103 103/107/103 3/12/103
f 104/108/105 107/4/105 108/6/105
f 102/105/106 101/109/106 1/1/106
f 105/104/107 108/6/107 109/10/107
f 103/107/108 102/105/108 2/7/108
