# Blender v2.77 (sub 0) OBJ File: ''
# www.blender.org
o Sphere_Sphere.001
v -0.258819 0.965926 0.000000
v -0.500000 0.866025 0.000000
v -0.707107 0.707107 0.000000
v -0.243210 0.965926 -0.088521
v -0.469846 0.866025 -0.171010
v -0.664463 0.707107 -0.241845
v -0.813798 0.500000 -0.296198
v -0.907673 0.258819 -0.330366
v -0.939693 0.000000 -0.342020
v -0.198267 0.965926 -0.166365
v -0.383022 0.866025 -0.321394
v -0.541675 0.707107 -0.454519
v -0.663414 0.500000 -0.556670
v -0.739942 0.258819 -0.620885
v -0.766044 0.000000 -0.642787
v -0.129410 0.965926 -0.224144
v -0.250000 0.866025 -0.433012
v -0.353554 0.707107 -0.612372
v -0.433013 0.500000 -0.750000
v -0.482963 0.258819 -0.836516
v -0.500000 0.000000 -0.866025
v -0.044944 0.965926 -0.254887
v -0.086824 0.866025 -0.492404
v -0.122788 0.707107 -0.696364
v -0.150384 0.500000 -0.852868
v -0.167732 0.258819 -0.951251
v -0.173649 0.000000 -0.984807
v 0.044943 0.965926 -0.254887
v 0.086824 0.866025 -0.492404
v 0.122787 0.707107 -0.696364
v 0.150383 0.500000 -0.852868
v 0.167731 0.258819 -0.951251
v 0.173648 0.000000 -0.984807
v 0.129409 0.965926 -0.224144
v 0.249999 0.866025 -0.433012
v 0.353553 0.707107 -0.612372
v 0.433012 0.500000 -0.750000
v 0.482962 0.258819 -0.836516
v 0.499999 0.000000 -0.866025
v -0.000001 1.000000 0.000000
v 0.198266 0.965926 -0.166365
v 0.383022 0.866025 -0.321394
v 0.541674 0.707107 -0.454519
v 0.663413 0.500000 -0.556670
v 0.739941 0.258819 -0.620885
v 0.766044 0.000000 -0.642788
v 0.243210 0.965926 -0.088521
v 0.469846 0.866025 -0.171010
v 0.664462 0.707107 -0.241845
v 0.813797 0.500000 -0.296198
v 0.907673 0.258819 -0.330366
v 0.939692 0.000000 -0.342020
v 0.258818 0.965926 -0.000000
v 0.499999 0.866025 -0.000000
v 0.707106 0.707107 -0.000000
v 0.866025 0.500000 -0.000000
v 0.965925 0.258819 -0.000000
v 0.999999 0.000000 -0.000000
v 0.243210 0.965926 0.088521
v 0.469846 0.866025 0.171010
v 0.664462 0.707107 0.241845
v 0.813797 0.500000 0.296198
v 0.907673 0.258819 0.330366
v 0.939692 0.000000 0.342020
v 0.198266 0.965926 0.166365
v 0.383022 0.866025 0.321393
v 0.541675 0.707107 0.454519
v 0.663413 0.500000 0.556670
v 0.739942 0.258819 0.620885
v 0.766044 0.000000 0.642787
v 0.129409 0.965926 0.224143
v 0.249999 0.866025 0.433012
v 0.353553 0.707107 0.612372
v 0.433012 0.500000 0.750000
v 0.482963 0.258819 0.836516
v 0.500000 0.000000 0.866025
v 0.044943 0.965926 0.254887
v 0.086824 0.866025 0.492403
v 0.122787 0.707107 0.696364
v 0.150383 0.500000 0.852868
v 0.167731 0.258819 0.951251
v 0.173648 0.000000 0.984807
v -0.044944 0.965926 0.254887
v -0.086824 0.866025 0.492403
v -0.122788 0.707107 0.696364
v -0.150384 0.500000 0.852868
v -0.167731 0.258819 0.951251
v -0.173648 0.000000 0.984808
v -0.129410 0.965926 0.224144
v -0.250000 0.866025 0.433012
v -0.353553 0.707107 0.612372
v -0.433013 0.500000 0.750000
v -0.482963 0.258819 0.836516
v -0.500000 0.000000 0.866025
v -0.198267 0.965926 0.166365
v -0.383022 0.866025 0.321394
v -0.541675 0.707107 0.454519
v -0.663414 0.500000 0.556670
v -0.739942 0.258819 0.620885
v -0.766044 0.000000 0.642788
v -0.243210 0.965926 0.088521
v -0.469846 0.866025 0.171010
v -0.664463 0.707107 0.241845
v -0.813798 0.500000 0.296198
v -0.907673 0.258819 0.330366
v -0.939693 0.000000 0.342020
v -0.866025 0.500000 0.000000
v -0.965926 0.258819 0.000000
v -1.000000 0.000000 0.000000
vn -0.1305 0.9912 -0.0230
vn -0.9119 0.3777 -0.1608
vn -0.3818 0.9218 -0.0673
vn -0.9766 0.1286 -0.1722
vn -0.6053 0.7888 -0.1067
vn -0.7857 0.6029 -0.1385
vn -0.8588 0.1286 -0.4958
vn -0.5323 0.7888 -0.3073
vn -0.6909 0.6029 -0.3989
vn -0.1148 0.9912 -0.0663
vn -0.8019 0.3777 -0.4630
vn -0.3358 0.9218 -0.1939
vn -0.5952 0.3777 -0.7093
vn -0.2492 0.9218 -0.2970
vn -0.6375 0.1286 -0.7597
vn -0.3951 0.7888 -0.4708
vn -0.5128 0.6029 -0.6112
vn -0.0852 0.9912 -0.1015
vn -0.2729 0.6029 -0.7497
vn -0.0453 0.9912 -0.1245
vn -0.3167 0.3777 -0.8701
vn -0.1326 0.9218 -0.3643
vn -0.3392 0.1286 -0.9319
vn -0.2102 0.7888 -0.5776
vn 0.0000 0.1286 -0.9917
vn 0.0000 0.7888 -0.6146
vn 0.0000 0.6029 -0.7978
vn -0.0000 0.9912 -0.1325
vn 0.0000 0.3777 -0.9259
vn 0.0000 0.9218 -0.3877
vn 0.3167 0.3777 -0.8701
vn 0.1326 0.9218 -0.3643
vn 0.3392 0.1286 -0.9319
vn 0.2102 0.7888 -0.5776
vn 0.2729 0.6029 -0.7497
vn 0.0453 0.9912 -0.1245
vn 0.5128 0.6029 -0.6112
vn 0.0852 0.9912 -0.1015
vn 0.5952 0.3777 -0.7093
vn 0.2492 0.9218 -0.2970
vn 0.6375 0.1286 -0.7597
vn 0.3951 0.7888 -0.4708
vn 0.8588 0.1286 -0.4959
vn 0.5323 0.7888 -0.3073
vn 0.6909 0.6029 -0.3989
vn 0.1148 0.9912 -0.0663
vn 0.8019 0.3777 -0.4630
vn 0.3358 0.9218 -0.1939
vn 0.1305 0.9912 -0.0230
vn 0.9119 0.3777 -0.1608
vn 0.3818 0.9218 -0.0673
vn 0.9766 0.1286 -0.1722
vn 0.6053 0.7888 -0.1067
vn 0.7857 0.6029 -0.1385
vn 0.7857 0.6029 0.1385
vn 0.1305 0.9912 0.0230
vn 0.9119 0.3777 0.1608
vn 0.3818 0.9218 0.0673
vn 0.9766 0.1286 0.1722
vn 0.6053 0.7888 0.1067
vn 0.3358 0.9218 0.1939
vn 0.8588 0.1286 0.4958
vn 0.5323 0.7888 0.3073
vn 0.6909 0.6029 0.3989
vn 0.1148 0.9912 0.0663
vn 0.8019 0.3777 0.4630
vn 0.0852 0.9912 0.1015
vn 0.5952 0.3777 0.7093
vn 0.2492 0.9218 0.2970
vn 0.6375 0.1286 0.7597
vn 0.3951 0.7888 0.4708
vn 0.5128 0.6029 0.6112
vn 0.2102 0.7888 0.5776
vn 0.2729 0.6029 0.7497
vn 0.0453 0.9912 0.1245
vn 0.3167 0.3777 0.8701
vn 0.1326 0.9218 0.3643
vn 0.3392 0.1286 0.9319
vn 0.0000 0.9218 0.3877
vn 0.0000 0.1286 0.9917
vn 0.0000 0.7888 0.6146
vn 0.0000 0.6029 0.7978
vn 0.0000 0.9912 0.1325
vn 0.0000 0.3777 0.9259
vn -0.2729 0.6029 0.7497
vn -0.0453 0.9912 0.1245
vn -0.3167 0.3777 0.8701
vn -0.1326 0.9218 0.3643
vn -0.3392 0.1286 0.9319
vn -0.2102 0.7888 0.5776
vn -0.3951 0.7888 0.4708
vn -0.5128 0.6029 0.6112
vn -0.0852 0.9912 0.1015
vn -0.5952 0.3777 0.7093
vn -0.2492 0.9218 0.2970
vn -0.6375 0.1286 0.7597
vn -0.8019 0.3777 0.4630
vn -0.3358 0.9218 0.1939
vn -0.8588 0.1286 0.4959
vn -0.5323 0.7888 0.3073
vn -0.6909 0.6029 0.3989
vn -0.1148 0.9912 0.0663
vn -0.7857 0.6029 0.1385
vn -0.1305 0.9912 0.0230
vn -0.9119 0.3777 0.1608
vn -0.3818 0.9218 0.0673
vn -0.9766 0.1286 0.1722
vn -0.6053 0.7888 0.1067
vn 0.8588 0.1286 -0.4958
vn -0.8588 0.1286 0.4958
s 1
f 1//1 40//1 4//1
f 107//2 8//2 108//2
f 2//3 4//3 5//3
f 108//4 9//4 109//4
f 2//5 6//5 3//5
f 3//6 7//6 107//6
f 8//7 15//7 9//7
f 5//8 12//8 6//8
f 6//9 13//9 7//9
f 4//10 40//10 10//10
f 7//11 14//11 8//11
f 5//12 10//12 11//12
f 13//13 20//13 14//13
f 11//14 16//14 17//14
f 14//15 21//15 15//15
f 12//16 17//16 18//16
f 12//17 19//17 13//17
f 10//18 40//18 16//18
f 18//19 25//19 19//19
f 16//20 40//20 22//20
f 19//21 26//21 20//21
f 17//22 22//22 23//22
f 20//23 27//23 21//23
f 18//24 23//24 24//24
f 26//25 33//25 27//25
f 24//26 29//26 30//26
f 24//27 31//27 25//27
f 22//28 40//28 28//28
f 25//29 32//29 26//29
f 23//30 28//30 29//30
f 31//31 38//31 32//31
f 29//32 34//32 35//32
f 32//33 39//33 33//33
f 30//34 35//34 36//34
f 30//35 37//35 31//35
f 28//36 40//36 34//36
f 36//37 44//37 37//37
f 34//38 40//38 41//38
f 37//39 45//39 38//39
f 35//40 41//40 42//40
f 38//41 46//41 39//41
f 36//42 42//42 43//42
f 45//43 52//43 46//43
f 43//44 48//44 49//44
f 43//45 50//45 44//45
f 41//46 40//46 47//46
f 44//47 51//47 45//47
f 41//48 48//48 42//48
f 47//49 40//49 53//49
f 50//50 57//50 51//50
f 48//51 53//51 54//51
f 51//52 58//52 52//52
f 49//53 54//53 55//53
f 49//54 56//54 50//54
f 55//55 62//55 56//55
f 53//56 40//56 59//56
f 56//57 63//57 57//57
f 54//58 59//58 60//58
f 57//59 64//59 58//59
f 55//60 60//60 61//60
f 59//61 66//61 60//61
f 63//62 70//62 64//62
f 61//63 66//63 67//63
f 61//64 68//64 62//64
f 59//65 40//65 65//65
f 62//66 69//66 63//66
f 65//67 40//67 71//67
f 68//68 75//68 69//68
f 65//69 72//69 66//69
f 69//70 76//70 70//70
f 67//71 72//71 73//71
f 68//72 73//72 74//72
f 73//73 78//73 79//73
f 74//74 79//74 80//74
f 71//75 40//75 77//75
f 74//76 81//76 75//76
f 71//77 78//77 72//77
f 75//78 82//78 76//78
f 77//79 84//79 78//79
f 81//80 88//80 82//80
f 78//81 85//81 79//81
f 80//82 85//82 86//82
f 77//83 40//83 83//83
f 80//84 87//84 81//84
f 86//85 91//85 92//85
f 83//86 40//86 89//86
f 86//87 93//87 87//87
f 83//88 90//88 84//88
f 87//89 94//89 88//89
f 85//90 90//90 91//90
f 90//91 97//91 91//91
f 92//92 97//92 98//92
f 89//93 40//93 95//93
f 92//94 99//94 93//94
f 90//95 95//95 96//95
f 93//96 100//96 94//96
f 98//97 105//97 99//97
f 95//98 102//98 96//98
f 99//99 106//99 100//99
f 97//100 102//100 103//100
f 98//101 103//101 104//101
f 95//102 40//102 101//102
f 104//103 3//103 107//103
f 101//104 40//104 1//104
f 104//105 108//105 105//105
f 102//106 1//106 2//106
f 105//107 109//107 106//107
f 103//108 2//108 3//108
f 107//2 7//2 8//2
f 2//3 1//3 4//3
f 108//4 8//4 9//4
f 2//5 5//5 6//5
f 3//6 6//6 7//6
f 8//7 14//7 15//7
f 5//8 11//8 12//8
f 6//9 12//9 13//9
f 7//11 13//11 14//11
f 5//12 4//12 10//12
f 13//13 19//13 20//13
f 11//14 10//14 16//14
f 14//15 20//15 21//15
f 12//16 11//16 17//16
f 12//17 18//17 19//17
f 18//19 24//19 25//19
f 19//21 25//21 26//21
f 17//22 16//22 22//22
f 20//23 26//23 27//23
f 18//24 17//24 23//24
f 26//25 32//25 33//25
f 24//26 23//26 29//26
f 24//27 30//27 31//27
f 25//29 31//29 32//29
f 23//30 22//30 28//30
f 31//31 37//31 38//31
f 29//32 28//32 34//32
f 32//33 38//33 39//33
f 30//34 29//34 35//34
f 30//35 36//35 37//35
f 36//37 43//37 44//37
f 37//39 44//39 45//39
f 35//40 34//40 41//40
f 38//41 45//41 46//41
f 36//42 35//42 42//42
f 45//109 51//109 52//109
f 43//44 42//44 48//44
f 43//45 49//45 50//45
f 44//47 50//47 51//47
f 41//48 47//48 48//48
f 50//50 56//50 57//50
f 48//51 47//51 53//51
f 51//52 57//52 58//52
f 49//53 48//53 54//53
f 49//54 55//54 56//54
f 55//55 61//55 62//55
f 56//57 62//57 63//57
f 54//58 53//58 59//58
f 57//59 63//59 64//59
f 55//60 54//60 60//60
f 59//61 65//61 66//61
f 63//62 69//62 70//62
f 61//63 60//63 66//63
f 61//64 67//64 68//64
f 62//66 68//66 69//66
f 68//68 74//68 75//68
f 65//69 71//69 72//69
f 69//70 75//70 76//70
f 67//71 66//71 72//71
f 68//72 67//72 73//72
f 73//73 72//73 78//73
f 74//74 73//74 79//74
f 74//76 80//76 81//76
f 71//77 77//77 78//77
f 75//78 81//78 82//78
f 77//79 83//79 84//79
f 81//80 87//80 88//80
f 78//81 84//81 85//81
f 80//82 79//82 85//82
f 80//84 86//84 87//84
f 86//85 85//85 91//85
f 86//87 92//87 93//87
f 83//88 89//88 90//88
f 87//89 93//89 94//89
f 85//90 84//90 90//90
f 90//91 96//91 97//91
f 92//92 91//92 97//92
f 92//94 98//94 99//94
f 90//95 89//95 95//95
f 93//96 99//96 100//96
f 98//97 104//97 105//97
f 95//98 101//98 102//98
f 99//110 105//110 106//110
f 97//100 96//100 102//100
f 98//101 97//101 103//101
f 104//103 103//103 3//103
f 104//105 107//105 108//105
f 102//106 101//106 1//106
f 105//107 108//107 109//107
f 103//108 102//108 2//108
