# Blender v2.77 (sub 0) OBJ File: 'Monkey.blend'
# www.blender.org
o Sphere.002
v 0.318452 0.084483 -0.069950
v 0.296057 0.084483 -0.181463
v 0.232280 0.084483 -0.275999
v 0.136831 0.084483 -0.339166
v 0.024242 0.084483 -0.361348
v -0.088347 0.084483 -0.339167
v -0.183796 0.084483 -0.275999
v -0.247572 0.084483 -0.181463
v -0.269968 0.084483 -0.069950
v -0.247572 0.084483 0.041563
v -0.183796 0.084483 0.136100
v -0.088347 0.084483 0.199267
v 0.024242 0.084483 0.221448
v 0.136831 0.084483 0.199267
v 0.232280 0.084483 0.136100
v 0.296057 0.084483 0.041563
v 0.195365 -1.090785 0.460919
v 0.182339 -1.115927 0.460919
v 0.145244 -1.137241 0.460919
v 0.089728 -1.151482 0.460919
v 0.024242 -1.156483 0.460919
v -0.041244 -1.151482 0.460919
v -0.096760 -1.137241 0.460919
v -0.133855 -1.115927 0.460919
v -0.146881 -1.090785 0.460919
v -0.133855 -1.065643 0.460919
v -0.096760 -1.044329 0.460919
v -0.041244 -1.030088 0.460919
v 0.024242 -1.025087 0.460919
v 0.089728 -1.030088 0.460919
v 0.145244 -1.044329 0.460919
v 0.182339 -1.065643 0.460919
v 0.241694 -0.915517 0.019261
v 0.190673 -0.915517 0.094890
v 0.114314 -0.915517 0.145424
v 0.024242 -0.915517 0.163169
v -0.065829 -0.915517 0.145424
v -0.142188 -0.915517 0.094890
v -0.193210 -0.915517 0.019261
v -0.211126 -0.915517 -0.069950
v -0.193210 -0.915517 -0.159160
v -0.142188 -0.915517 -0.234789
v 0.247895 0.152258 -0.069950
v 0.230870 0.152258 -0.154720
v 0.182388 0.152258 -0.226584
v 0.109830 0.152258 -0.274603
v 0.024242 0.152258 -0.291465
v -0.061346 0.152258 -0.274603
v -0.133904 0.152258 -0.226584
v -0.182386 0.152258 -0.154720
v -0.199410 0.152258 -0.069950
v -0.182386 0.152258 0.014820
v -0.133904 0.152258 0.086685
v -0.061346 0.152258 0.134703
v 0.024242 0.152258 0.151565
v 0.109830 0.152258 0.134703
v 0.182388 0.152258 0.086685
v 0.230870 0.152258 0.014820
v -0.065829 -0.915517 -0.285323
v 0.024242 -0.915517 -0.303068
v 0.114314 -0.915517 -0.285323
v 0.190673 -0.915517 -0.234789
v 0.241694 -0.915517 -0.159160
v 0.259610 -0.915517 -0.069950
v 0.237141 -0.990580 0.063652
v 0.254682 -1.003151 -0.051940
v 0.237141 -1.015722 -0.167531
v 0.187188 -1.026379 -0.265525
v -0.138703 -0.979923 0.161646
v 0.112428 -1.033500 -0.331002
v -0.063943 -0.972802 0.227123
v -0.188657 -1.015722 -0.167531
v -0.206198 -1.003151 -0.051939
v -0.063943 -1.033500 -0.331003
v 0.112428 -0.972802 0.227124
v 0.024242 -1.036000 -0.353995
v -0.188657 -0.990580 0.063652
v 0.187188 -0.979923 0.161646
v -0.138704 -1.026379 -0.265525
v 0.024242 -0.970302 0.250116
v 0.105179 -1.188915 0.100465
v 0.024242 -1.196335 0.090917
v -0.125309 -1.167783 0.127657
v 0.024242 -1.001370 0.341791
v 0.219640 -1.061547 0.264357
v 0.235739 -1.098853 0.216354
v 0.219640 -1.136158 0.168351
v 0.173793 -1.167783 0.127657
v -0.125309 -1.029922 0.305051
v -0.056694 -1.008790 0.332242
v -0.171156 -1.136158 0.168351
v -0.187255 -1.098852 0.216354
v -0.056694 -1.188915 0.100465
v 0.105179 -1.008790 0.332243
v -0.171156 -1.061547 0.264357
v 0.173793 -1.029922 0.305051
v 0.248529 -1.057470 0.098023
v 0.267008 -1.098257 -0.021852
v 0.248529 -1.139045 -0.141726
v 0.195904 -1.173623 -0.243351
v -0.147419 -1.022892 0.199648
v -0.068660 -0.999788 0.267551
v -0.200044 -1.139045 -0.141726
v -0.218524 -1.098257 -0.021852
v -0.068660 -1.196727 -0.311255
v 0.117145 -0.999787 0.267551
v -0.200044 -1.057470 0.098023
v 0.195904 -1.022892 0.199648
v 0.117145 -1.196727 -0.311254
v 0.024242 -1.204840 -0.335099
v -0.147419 -1.173623 -0.243351
v 0.024242 -0.991674 0.291396
v 0.125941 -1.090785 0.529974
v 0.118200 -1.105727 0.529974
v 0.096154 -1.118394 0.529974
v 0.063161 -1.126858 0.529974
v 0.024242 -1.129830 0.529974
v -0.014677 -1.126858 0.529974
v -0.047670 -1.118394 0.529974
v -0.069716 -1.105727 0.529974
v -0.077457 -1.090785 0.529974
v -0.069716 -1.075843 0.529974
v -0.047670 -1.063176 0.529974
v -0.014677 -1.054712 0.529974
v 0.024242 -1.051740 0.529974
v 0.063161 -1.054712 0.529974
v 0.096154 -1.063176 0.529974
v 0.118200 -1.075843 0.529974
v 0.054927 -1.090785 0.547264
v 0.052591 -1.095293 0.547264
v 0.045939 -1.099115 0.547264
v 0.035985 -1.101669 0.547264
v 0.024242 -1.102566 0.547264
v 0.012500 -1.101669 0.547264
v 0.002545 -1.099115 0.547264
v -0.004107 -1.095293 0.547264
v -0.006442 -1.090785 0.547264
v -0.004107 -1.086277 0.547264
v 0.002545 -1.082455 0.547264
v 0.012500 -1.079901 0.547264
v 0.024242 -1.079005 0.547264
v 0.035985 -1.079901 0.547264
v 0.045939 -1.082455 0.547264
v 0.052591 -1.086277 0.547264
v 0.114388 -1.202788 -0.081089
v 0.024242 -1.211032 -0.096549
v -0.142325 -1.179314 -0.037064
v 0.024242 -0.994449 0.309639
v 0.241873 -1.061299 0.184265
v 0.259804 -1.102740 0.106545
v 0.241873 -1.144181 0.028824
v 0.190810 -1.179314 -0.037064
v -0.142325 -1.026167 0.250154
v -0.065904 -1.002692 0.294179
v -0.193389 -1.144181 0.028824
v -0.211320 -1.102740 0.106545
v -0.065904 -1.202788 -0.081089
v 0.114388 -1.002692 0.294179
v -0.193389 -1.061299 0.184265
v 0.190810 -1.026167 0.250154
vt 0.9668 0.8217
vt 0.9221 0.9634
vt 0.9442 0.7986
vt 0.2963 0.7846
vt 0.2921 0.7054
vt 0.3103 0.7080
vt 0.9105 0.7822
vt 0.8620 0.9594
vt 0.8708 0.7752
vt 0.3301 0.7741
vt 0.3377 0.7097
vt 0.8943 0.9612
vt 0.3700 0.7704
vt 0.3700 0.7103
vt 0.7975 0.7918
vt 0.8300 0.9582
vt 0.8033 0.9579
vt 0.0747 0.6271
vt 0.0000 0.6503
vt 0.0018 0.6375
vt 0.0930 0.6436
vt 0.0047 0.6622
vt 0.4023 0.7097
vt 0.4099 0.7741
vt 0.3892 0.6736
vt 0.8727 0.5653
vt 0.8202 0.0697
vt 0.8650 0.0693
vt 0.4857 0.0311
vt 0.4847 0.5300
vt 0.4443 0.5250
vt 0.8167 0.5658
vt 0.7810 0.0697
vt 0.5363 0.0373
vt 0.5293 0.5353
vt 0.0821 0.0549
vt 0.1964 0.5403
vt 0.1635 0.5440
vt 0.6856 0.0549
vt 0.5713 0.5403
vt 0.6444 0.0502
vt 0.5920 0.0440
vt 0.1757 0.0440
vt 0.1233 0.0502
vt 0.7092 0.0574
vt 0.6042 0.5440
vt 0.2314 0.0373
vt 0.2384 0.5353
vt 0.9719 0.5631
vt 0.9669 0.0665
vt 1.0000 0.5618
vt 0.4296 0.7080
vt 0.4437 0.7846
vt 0.4481 0.0263
vt 0.4142 0.5212
vt 0.7750 0.8129
vt 0.7860 0.9586
vt 0.2199 0.6853
vt 0.2356 0.7370
vt 0.2055 0.7061
vt 0.0609 0.9151
vt 0.0546 0.8499
vt 0.0846 0.8808
vt 0.2820 0.0311
vt 0.2193 0.0047
vt 0.2577 0.0000
vt 0.0214 0.8745
vt 0.0384 0.8105
vt 0.1769 0.0098
vt 0.0000 0.8226
vt 0.0384 0.7684
vt 0.1371 0.0145
vt 0.6306 0.0145
vt 0.0000 0.7673
vt 0.0546 0.7302
vt 0.2199 0.9211
vt 0.2356 0.8568
vt 0.2594 0.8835
vt 0.5908 0.0098
vt 0.1683 0.9403
vt 0.2055 0.8854
vt 0.5484 0.0047
vt 0.1125 0.9382
vt 0.1663 0.9000
vt 0.1663 0.6885
vt 0.1683 0.6622
vt 0.1239 0.8984
vt 0.6747 0.6436
vt 0.7630 0.6622
vt 0.6484 0.6591
vt 0.8311 0.7786
vt 0.4479 0.7054
vt 0.4663 0.8003
vt 0.6930 0.6271
vt 0.7677 0.6503
vt 0.2830 0.5300
vt 0.9272 0.5643
vt 0.9444 0.0676
vt 0.9086 0.0686
vt 0.3196 0.0263
vt 0.3234 0.5250
vt 0.5725 0.5841
vt 0.6231 0.5460
vt 0.6173 0.5830
vt 0.3535 0.5212
vt 0.3499 0.5808
vt 0.5188 0.5841
vt 0.2489 0.5841
vt 0.4144 0.8752
vt 0.4503 0.8596
vt 0.4520 0.8995
vt 0.3700 0.8667
vt 0.4135 0.8290
vt 0.1952 0.5841
vt 0.1504 0.5830
vt 0.3032 0.5829
vt 0.3265 0.8290
vt 0.3700 0.8183
vt 0.4645 0.5829
vt 0.4178 0.5808
vt 0.3256 0.8752
vt 0.2897 0.8596
vt 0.3858 0.5780
vt 0.7924 0.0328
vt 0.8361 0.0382
vt 0.6650 0.6238
vt 0.6345 0.6410
vt 0.4521 0.8115
vt 0.4773 0.8388
vt 0.8311 0.6884
vt 0.9895 0.7946
vt 0.9813 0.7533
vt 0.7677 0.7435
vt 0.4144 0.7932
vt 0.3700 0.7867
vt 0.1332 0.6410
vt 0.1193 0.6591
vt 0.1027 0.6238
vt 0.7933 0.7099
vt 0.9567 0.7174
vt 0.9195 0.6925
vt 0.3256 0.7932
vt 0.8754 0.6823
vt 0.2879 0.8115
vt 0.2737 0.8003
vt 0.5253 0.6464
vt 0.4674 0.6567
vt 0.7946 0.0000
vt 0.8404 0.0173
vt 0.4177 0.6622
vt 0.3838 0.6620
vt 0.2854 0.8361
vt 0.3242 0.8063
vt 0.3700 0.7958
vt 0.3003 0.6567
vt 0.1850 0.6328
vt 0.1370 0.6179
vt 0.2424 0.6464
vt 0.4158 0.8063
vt 0.4546 0.8361
vt 0.3819 0.5780
vt 0.3500 0.6622
vt 0.6465 0.5809
vt 0.6307 0.6179
vt 0.5827 0.6328
vt 0.4839 0.7837
vt 0.4961 0.7692
vt 0.4894 0.7940
vt 0.8262 0.9942
vt 0.3345 0.6725
vt 0.3508 0.6736
vt 0.9411 0.9657
vt 0.9124 1.0000
vt 0.9081 0.9988
vt 0.4942 0.6669
vt 0.5029 0.7081
vt 0.4953 0.7109
vt 0.5189 0.6690
vt 0.5070 0.6622
vt 0.8803 0.9961
vt 0.8611 0.9950
vt 0.4201 0.6692
vt 0.4543 0.7023
vt 0.8968 0.9974
vt 0.4054 0.6725
vt 0.8421 0.9944
vt 0.3700 0.6739
vt 0.8159 0.9946
vt 0.3237 0.6710
vt 0.4163 0.6710
vt 0.4935 0.7616
vt 0.4935 0.7564
vt 0.5042 0.7625
vt 0.4808 0.7688
vt 0.4945 0.7661
vt 0.3758 0.6622
vt 0.4805 0.7515
vt 0.4943 0.7512
vt 0.4832 0.7344
vt 0.4958 0.7469
vt 0.4884 0.7201
vt 0.4979 0.7441
vt 0.5162 0.7717
vt 0.5027 0.7668
vt 0.5002 0.7433
vt 0.5189 0.7546
vt 0.5050 0.7573
vt 0.5187 0.7373
vt 0.5040 0.7476
vt 0.5155 0.7224
vt 0.5110 0.7859
vt 0.5006 0.7696
vt 0.5041 0.7952
vt 0.4983 0.7704
vt 0.5050 0.7521
vt 0.5100 0.7121
vt 0.5024 0.7445
vt 0.4965 0.7980
vt 0.9895 0.6702
vt 0.9652 0.6168
vt 0.2627 0.8388
vt 0.9275 0.5801
vt 0.8823 0.5658
vt 0.7967 0.6091
vt 0.1728 0.6570
vt 0.7694 0.6601
vt 0.5949 0.6570
vt 0.8364 0.5760
vt 0.4805 0.8807
vt 0.7677 0.5658
vt 0.2594 0.7259
vt 0.0214 0.7169
vt 0.5100 0.0000
vt 0.0846 0.7015
vt 0.1239 0.6869
vt 0.2518 0.7765
vt 0.2518 0.8185
vt 0.7659 0.6375
vt 0.2880 0.8995
vt 0.9747 0.8482
vt 0.6621 0.6041
vt 0.9484 0.9677
vt 0.3700 0.6623
vt 0.2594 0.8807
vn 0.6523 -0.7425 0.1520
vn 0.3727 -0.8791 0.2972
vn 0.3703 -0.9219 0.1137
vn -0.5079 0.8429 0.1778
vn -0.6776 0.6183 0.3982
vn -0.3738 0.8687 0.3249
vn 0.1673 -0.9811 0.0970
vn 0.0000 -0.9722 0.2339
vn 0.0000 -0.9957 0.0923
vn -0.2251 0.9566 0.1850
vn -0.1641 0.9437 0.2873
vn 0.1643 -0.9546 0.2482
vn 0.0000 0.9807 0.1953
vn 0.0000 0.9607 0.2776
vn -0.3703 -0.9219 0.1137
vn -0.1643 -0.9546 0.2482
vn -0.3727 -0.8791 0.2972
vn -0.8606 0.4689 0.1988
vn -0.9002 -0.0031 0.4355
vn -0.9474 -0.2463 0.2043
vn -0.6782 -0.6264 0.3842
vn 0.1641 0.9437 0.2873
vn 0.2251 0.9566 0.1850
vn 0.1234 0.7506 0.6491
vn -0.3564 0.3468 0.8676
vn -0.7366 0.2062 0.6441
vn -0.3929 0.3999 0.8281
vn 0.3564 0.3468 -0.8676
vn 0.7247 0.0342 -0.6882
vn 0.3991 0.1241 -0.9084
vn -0.6604 0.3473 0.6658
vn -0.9381 0.0219 0.3457
vn 0.6604 0.3473 -0.6658
vn 0.9270 -0.0431 -0.3725
vn -0.8651 0.3478 0.3613
vn -0.9981 -0.0600 -0.0124
vn 0.8651 0.3478 0.3613
vn 0.9981 -0.0600 -0.0124
vn 0.9375 0.3480 0.0000
vn 0.8651 0.3478 -0.3613
vn -0.8651 0.3478 -0.3613
vn -0.9375 0.3480 0.0000
vn 0.6604 0.3473 0.6658
vn 0.9381 0.0219 0.3457
vn -0.6604 0.3473 -0.6658
vn -0.9270 -0.0431 -0.3725
vn 0.3564 0.3468 0.8676
vn 0.7366 0.2062 0.6441
vn 0.3738 0.8687 0.3249
vn 0.5079 0.8429 0.1778
vn 0.0000 0.3465 -0.9380
vn 0.0000 0.1643 -0.9864
vn -0.6523 -0.7425 0.1520
vn -0.1569 0.9103 -0.3829
vn 0.0000 0.9102 -0.4141
vn 0.0000 0.3465 0.9380
vn 0.1569 0.9103 0.3829
vn 0.0000 0.9102 0.4141
vn -0.3564 0.3468 -0.8676
vn -0.2907 0.9106 -0.2938
vn 0.2907 0.9106 0.2938
vn -0.3807 0.9109 -0.1594
vn 0.3807 0.9109 0.1594
vn -0.4124 0.9110 0.0000
vn 0.4124 0.9110 0.0000
vn 0.3807 0.9109 -0.1594
vn -0.3807 0.9109 0.1594
vn 0.2907 0.9106 -0.2938
vn -0.2907 0.9106 0.2938
vn 0.1569 0.9103 -0.3829
vn -0.1569 0.9103 0.3829
vn 0.9474 -0.2463 0.2043
vn 0.6782 -0.6264 0.3842
vn -0.1673 -0.9811 0.0970
vn 0.6776 0.6183 0.3982
vn 0.8606 0.4689 0.1988
vn 0.9002 -0.0031 0.4355
vn -0.7247 0.0342 -0.6882
vn 0.3929 0.3999 0.8281
vn 0.0000 0.4712 0.8820
vn -0.3991 0.1241 -0.9084
vn 0.9990 0.0426 -0.0122
vn 0.9261 0.2379 0.2927
vn -0.4407 0.1185 -0.8897
vn 0.9412 0.0202 -0.3373
vn -0.9412 0.0202 -0.3373
vn 0.6872 0.5451 0.4803
vn 0.3488 0.7795 0.5203
vn -0.9990 0.0426 -0.0122
vn -0.9261 0.2379 0.2927
vn -0.7607 0.0728 -0.6450
vn -0.3488 0.7795 0.5203
vn 0.0000 0.8628 0.5055
vn 0.7607 0.0728 -0.6450
vn 0.4407 0.1185 -0.8897
vn -0.6872 0.5451 0.4803
vn 0.0000 0.1337 -0.9910
vn 0.8895 0.4228 0.1732
vn 0.9697 -0.2066 0.1302
vn 0.5508 0.8167 0.1720
vn -0.1864 -0.9821 0.0244
vn 0.7108 -0.6998 0.0708
vn -0.7108 -0.6998 0.0708
vn 0.2512 0.9524 0.1726
vn 0.0000 0.9836 0.1800
vn -0.9697 -0.2066 0.1302
vn -0.8895 0.4228 0.1732
vn -0.4116 -0.9105 0.0379
vn 0.4116 -0.9105 0.0379
vn 0.1864 -0.9821 0.0244
vn -0.2512 0.9524 0.1726
vn 0.0000 -0.9998 0.0208
vn -0.5508 0.8167 0.1720
vn 0.8879 -0.4193 -0.1891
vn 0.7072 -0.5787 -0.4061
vn -0.9340 0.3221 0.1546
vn -0.6577 0.7053 0.2642
vn 0.4144 -0.6713 -0.6144
vn 0.0000 -0.7048 -0.7094
vn -0.3152 0.9042 0.2881
vn 0.0000 0.9585 0.2851
vn -0.7072 -0.5787 -0.4061
vn -0.9914 -0.1305 -0.0027
vn -0.8879 -0.4193 -0.1891
vn 0.3152 0.9042 0.2881
vn 0.6577 0.7053 0.2642
vn -0.4144 -0.6713 -0.6144
vn 0.9340 0.3221 0.1546
vn 0.9914 -0.1305 -0.0027
vn 0.2576 0.6568 0.7087
vn 0.1233 0.1558 0.9800
vn 0.4224 0.4461 0.7890
vn -0.2576 -0.6568 0.7087
vn -0.2576 0.6568 0.7087
vn -0.1234 0.7506 0.6491
vn 0.5456 0.0000 0.8380
vn 0.4224 -0.4461 0.7890
vn -0.5456 0.0000 0.8380
vn -0.4224 0.4461 0.7890
vn 0.1234 -0.7506 0.6491
vn 0.0000 -0.7791 0.6269
vn 0.2576 -0.6568 0.7087
vn -0.1234 -0.7506 0.6491
vn 0.0000 0.7791 0.6269
vn -0.4224 -0.4461 0.7890
vn 0.0363 0.2810 0.9590
vn 0.0000 0.2912 0.9566
vn 0.0363 -0.2810 0.9590
vn 0.0779 0.2409 0.9674
vn -0.0363 0.2810 0.9590
vn -0.0779 0.2409 0.9674
vn -0.1233 0.1557 0.9800
vn 0.0779 -0.2409 0.9674
vn -0.1545 0.0000 0.9880
vn 0.0000 -0.2912 0.9566
vn -0.0779 -0.2409 0.9674
vn 0.1233 -0.1558 0.9800
vn 0.1545 0.0000 0.9880
vn -0.0363 -0.2810 0.9590
vn -0.1233 -0.1558 0.9800
s 1
f 87/1/1 19/2/2 88/3/3
f 89/4/4 26/5/5 27/6/6
f 81/7/7 21/8/8 82/9/9
f 90/10/10 27/6/6 28/11/11
f 88/3/3 20/12/12 81/7/7
f 84/13/13 28/11/11 29/14/14
f 83/15/15 22/16/16 23/17/17
f 95/18/18 25/19/19 26/20/5
f 92/21/20 24/22/21 25/19/19
f 84/13/13 30/23/22 94/24/23
f 29/14/14 126/25/24 30/23/22
f 12/26/25 38/27/26 37/28/27
f 4/29/28 62/30/29 61/31/30
f 11/32/31 39/33/32 38/27/26
f 3/34/33 63/35/34 62/30/29
f 10/36/35 40/37/36 39/38/32
f 16/39/37 64/40/38 1/41/39
f 2/42/40 64/40/38 63/35/34
f 8/43/41 40/37/36 9/44/42
f 15/45/43 33/46/44 16/39/37
f 7/47/45 41/48/46 8/43/41
f 14/49/47 34/50/48 15/51/43
f 94/24/23 31/52/49 96/53/50
f 5/54/51 61/31/30 60/55/52
f 91/56/53 23/17/17 24/57/21
f 5/58/51 48/59/54 47/60/55
f 13/61/56 56/62/57 55/63/58
f 6/64/59 49/65/60 48/66/54
f 14/67/47 57/68/61 56/62/57
f 7/47/45 50/69/62 49/65/60
f 15/70/43 58/71/63 57/68/61
f 8/43/41 51/72/64 50/69/62
f 2/42/40 43/73/65 1/41/39
f 16/74/37 43/75/65 58/71/63
f 10/76/35 51/77/64 9/78/42
f 3/34/33 44/79/66 2/42/40
f 11/80/31 52/81/67 10/76/35
f 4/29/28 45/82/68 3/34/33
f 12/83/25 53/84/69 11/80/31
f 5/58/51 46/85/70 4/86/28
f 13/61/56 54/87/71 12/83/25
f 54/87/71 55/63/58 47/60/55
f 86/88/72 18/89/73 87/90/1
f 93/91/74 21/8/8 22/16/16
f 96/53/50 32/92/75 85/93/76
f 85/94/76 17/95/77 86/88/72
f 6/64/59 42/96/78 7/47/45
f 13/97/56 35/98/79 14/49/47
f 13/97/56 37/28/27 36/99/80
f 5/100/51 59/101/81 6/64/59
f 33/46/44 66/102/82 64/40/38
f 34/103/48 65/104/83 33/46/44
f 60/105/52 74/106/84 59/101/81
f 63/35/34 66/102/82 67/107/85
f 42/96/78 72/108/86 41/48/46
f 35/109/79 78/110/87 34/111/48
f 36/112/80 75/113/88 35/109/79
f 41/48/46 73/114/89 40/37/36
f 39/38/32 73/114/89 77/115/90
f 59/101/81 79/116/91 42/96/78
f 36/112/80 71/117/92 80/118/93
f 61/31/30 68/119/94 70/120/95
f 37/121/27 69/122/96 71/117/92
f 60/55/52 70/120/95 76/123/97
f 38/27/26 77/124/90 69/125/96
f 62/30/29 67/107/85 68/119/94
f 149/126/98 86/88/72 150/127/99
f 160/128/100 85/93/76 149/129/98
f 157/130/101 82/9/9 93/91/74
f 150/131/99 87/1/1 151/132/102
f 155/133/103 83/15/15 91/56/53
f 158/134/104 96/53/50 160/128/100
f 148/135/105 94/24/23 158/134/104
f 156/136/106 91/137/53 92/21/20
f 159/138/107 92/21/20 95/18/18
f 147/139/108 93/91/74 83/15/15
f 148/135/105 90/10/10 84/13/13
f 152/140/109 81/7/7 145/141/110
f 154/142/111 89/4/4 90/10/10
f 145/141/110 82/9/9 146/143/112
f 153/144/113 95/145/18 89/4/4
f 151/132/102 88/3/3 152/140/109
f 68/119/94 99/146/114 100/147/115
f 69/125/96 107/148/116 101/149/117
f 76/123/97 109/150/118 110/151/119
f 71/117/92 101/152/117 102/153/120
f 70/120/95 100/147/115 109/150/118
f 80/118/93 102/153/120 112/154/121
f 74/106/84 111/155/122 79/116/91
f 77/115/90 104/156/123 107/157/116
f 73/114/89 103/158/124 104/156/123
f 80/118/93 106/159/125 75/113/88
f 75/113/88 108/160/126 78/110/87
f 79/116/91 103/158/124 72/108/86
f 66/102/82 99/146/114 67/107/85
f 76/161/97 105/162/127 74/106/84
f 78/163/87 97/164/128 65/104/83
f 65/104/83 98/165/129 66/102/82
f 127/166/130 144/167/131 128/168/132
f 22/16/16 119/169/133 23/17/17
f 28/11/11 123/170/134 124/171/135
f 18/172/73 113/173/136 114/174/137
f 26/175/5 121/176/138 122/177/139
f 24/178/21 121/176/138 25/179/19
f 21/8/8 116/180/140 117/181/141
f 32/92/75 113/182/136 17/183/77
f 19/2/2 114/174/137 115/184/142
f 30/23/22 127/185/130 31/52/49
f 21/8/8 118/186/143 22/16/16
f 29/14/14 124/171/135 125/187/144
f 23/17/17 120/188/145 24/57/21
f 27/6/6 122/189/139 123/170/134
f 31/52/49 128/190/132 32/92/75
f 20/12/12 115/184/142 116/180/140
f 142/191/146 141/192/147 132/193/148
f 126/194/24 143/195/149 127/166/130
f 125/187/144 142/196/146 126/25/24
f 125/197/144 140/198/150 141/192/147
f 124/199/135 139/200/151 140/198/150
f 123/201/134 138/202/152 139/200/151
f 116/203/140 131/204/153 132/193/148
f 122/177/139 137/205/154 138/202/152
f 117/206/141 132/193/148 133/207/155
f 118/208/143 135/209/156 119/210/133
f 115/211/142 130/212/157 131/204/153
f 114/213/137 129/214/158 130/212/157
f 117/206/141 134/215/159 118/208/143
f 120/216/145 137/205/154 121/176/138
f 119/210/133 136/217/160 120/216/145
f 128/168/132 129/214/158 113/218/136
f 99/219/114 152/140/109 100/220/115
f 101/152/117 159/221/107 153/144/113
f 109/222/118 146/143/112 110/223/119
f 102/153/120 153/144/113 154/142/111
f 100/220/115 145/141/110 109/222/118
f 112/154/121 154/142/111 148/135/105
f 111/224/122 157/130/101 147/139/108
f 107/157/116 156/136/106 159/138/107
f 104/156/123 155/225/103 156/136/106
f 112/154/121 158/134/104 106/159/125
f 106/159/125 160/128/100 108/160/126
f 103/226/124 147/139/108 155/133/103
f 98/165/129 151/227/102 99/146/114
f 105/228/127 146/143/112 157/130/101
f 108/160/126 149/129/98 97/229/128
f 97/164/128 150/127/99 98/165/129
f 87/1/1 18/172/73 19/2/2
f 89/4/4 95/145/18 26/5/5
f 81/7/7 20/12/12 21/8/8
f 90/10/10 89/4/4 27/6/6
f 88/3/3 19/2/2 20/12/12
f 84/13/13 90/10/10 28/11/11
f 83/15/15 93/91/74 22/16/16
f 95/18/18 92/21/20 25/19/19
f 92/21/20 91/137/53 24/22/21
f 84/13/13 29/14/14 30/23/22
f 29/14/14 125/187/144 126/25/24
f 12/26/25 11/32/31 38/27/26
f 4/29/28 3/34/33 62/30/29
f 11/32/31 10/230/35 39/33/32
f 3/34/33 2/42/40 63/35/34
f 10/36/35 9/44/42 40/37/36
f 16/39/37 33/46/44 64/40/38
f 2/42/40 1/41/39 64/40/38
f 8/43/41 41/48/46 40/37/36
f 15/45/43 34/103/48 33/46/44
f 7/47/45 42/96/78 41/48/46
f 14/49/47 35/98/79 34/50/48
f 94/24/23 30/23/22 31/52/49
f 5/54/51 4/29/28 61/31/30
f 91/56/53 83/15/15 23/17/17
f 5/58/51 6/231/59 48/59/54
f 13/61/56 14/67/47 56/62/57
f 6/64/59 7/47/45 49/65/60
f 14/67/47 15/70/43 57/68/61
f 7/47/45 8/43/41 50/69/62
f 15/70/43 16/74/37 58/71/63
f 8/43/41 9/44/42 51/72/64
f 2/42/40 44/79/66 43/73/65
f 16/74/37 1/232/39 43/75/65
f 10/76/35 52/81/67 51/77/64
f 3/34/33 45/82/68 44/79/66
f 11/80/31 53/84/69 52/81/67
f 4/29/28 46/233/70 45/82/68
f 12/83/25 54/87/71 53/84/69
f 5/58/51 47/60/55 46/85/70
f 13/61/56 55/63/58 54/87/71
f 43/75/65 44/234/66 58/71/63
f 45/235/68 46/85/70 57/68/61
f 47/60/55 48/59/54 54/87/71
f 49/236/60 50/237/62 53/84/69
f 51/77/64 52/81/67 50/237/62
f 53/84/69 54/87/71 48/59/54
f 55/63/58 56/62/57 47/60/55
f 57/68/61 58/71/63 44/234/66
f 44/234/66 45/235/68 57/68/61
f 48/59/54 49/236/60 53/84/69
f 52/81/67 53/84/69 50/237/62
f 56/62/57 46/85/70 47/60/55
f 46/85/70 56/62/57 57/68/61
f 86/88/72 17/95/77 18/89/73
f 93/91/74 82/9/9 21/8/8
f 96/53/50 31/52/49 32/92/75
f 85/94/76 32/238/75 17/95/77
f 6/64/59 59/101/81 42/96/78
f 13/97/56 36/99/80 35/98/79
f 13/97/56 12/26/25 37/28/27
f 5/100/51 60/105/52 59/101/81
f 33/46/44 65/104/83 66/102/82
f 34/103/48 78/163/87 65/104/83
f 60/105/52 76/161/97 74/106/84
f 63/35/34 64/40/38 66/102/82
f 42/96/78 79/116/91 72/108/86
f 35/109/79 75/113/88 78/110/87
f 36/112/80 80/118/93 75/113/88
f 41/48/46 72/108/86 73/114/89
f 39/38/32 40/37/36 73/114/89
f 59/101/81 74/106/84 79/116/91
f 36/112/80 37/121/27 71/117/92
f 61/31/30 62/30/29 68/119/94
f 37/121/27 38/239/26 69/122/96
f 60/55/52 61/31/30 70/120/95
f 38/27/26 39/33/32 77/124/90
f 62/30/29 63/35/34 67/107/85
f 149/126/98 85/94/76 86/88/72
f 160/128/100 96/53/50 85/93/76
f 157/130/101 146/143/112 82/9/9
f 150/131/99 86/240/72 87/1/1
f 155/133/103 147/139/108 83/15/15
f 158/134/104 94/24/23 96/53/50
f 148/135/105 84/13/13 94/24/23
f 156/136/106 155/225/103 91/137/53
f 159/138/107 156/136/106 92/21/20
f 147/139/108 157/130/101 93/91/74
f 148/135/105 154/142/111 90/10/10
f 152/140/109 88/3/3 81/7/7
f 154/142/111 153/144/113 89/4/4
f 145/141/110 81/7/7 82/9/9
f 153/144/113 159/221/107 95/145/18
f 151/132/102 87/1/1 88/3/3
f 68/119/94 67/107/85 99/146/114
f 69/125/96 77/124/90 107/148/116
f 76/123/97 70/120/95 109/150/118
f 71/117/92 69/122/96 101/152/117
f 70/120/95 68/119/94 100/147/115
f 80/118/93 71/117/92 102/153/120
f 74/106/84 105/162/127 111/155/122
f 77/115/90 73/114/89 104/156/123
f 73/114/89 72/108/86 103/158/124
f 80/118/93 112/154/121 106/159/125
f 75/113/88 106/159/125 108/160/126
f 79/116/91 111/155/122 103/158/124
f 66/102/82 98/165/129 99/146/114
f 76/161/97 110/151/119 105/162/127
f 78/163/87 108/241/126 97/164/128
f 65/104/83 97/164/128 98/165/129
f 127/166/130 143/195/149 144/167/131
f 22/16/16 118/186/143 119/169/133
f 28/11/11 27/6/6 123/170/134
f 18/172/73 17/242/77 113/173/136
f 26/175/5 25/179/19 121/176/138
f 24/178/21 120/216/145 121/176/138
f 21/8/8 20/12/12 116/180/140
f 32/92/75 128/190/132 113/182/136
f 19/2/2 18/172/73 114/174/137
f 30/23/22 126/25/24 127/185/130
f 21/8/8 117/181/141 118/186/143
f 29/14/14 28/11/11 124/171/135
f 23/17/17 119/169/133 120/188/145
f 27/6/6 26/5/5 122/189/139
f 31/52/49 127/185/130 128/190/132
f 20/12/12 19/2/2 115/184/142
f 139/200/151 138/202/152 135/209/156
f 137/205/154 136/217/160 138/202/152
f 135/209/156 134/215/159 139/200/151
f 133/207/155 132/193/148 141/192/147
f 131/204/153 130/212/157 144/167/131
f 129/214/158 144/167/131 130/212/157
f 143/195/149 142/191/146 131/204/153
f 141/192/147 140/198/150 133/207/155
f 138/202/152 136/217/160 135/209/156
f 134/215/159 140/198/150 139/200/151
f 131/204/153 144/167/131 143/195/149
f 142/191/146 132/193/148 131/204/153
f 134/215/159 133/207/155 140/198/150
f 126/194/24 142/191/146 143/195/149
f 125/187/144 141/243/147 142/196/146
f 125/197/144 124/199/135 140/198/150
f 124/199/135 123/201/134 139/200/151
f 123/201/134 122/177/139 138/202/152
f 116/203/140 115/211/142 131/204/153
f 122/177/139 121/176/138 137/205/154
f 117/206/141 116/203/140 132/193/148
f 118/208/143 134/215/159 135/209/156
f 115/211/142 114/213/137 130/212/157
f 114/213/137 113/218/136 129/214/158
f 117/206/141 133/207/155 134/215/159
f 120/216/145 136/217/160 137/205/154
f 119/210/133 135/209/156 136/217/160
f 128/168/132 144/167/131 129/214/158
f 99/219/114 151/132/102 152/140/109
f 101/152/117 107/244/116 159/221/107
f 109/222/118 145/141/110 146/143/112
f 102/153/120 101/152/117 153/144/113
f 100/220/115 152/140/109 145/141/110
f 112/154/121 102/153/120 154/142/111
f 111/224/122 105/228/127 157/130/101
f 107/157/116 104/156/123 156/136/106
f 104/156/123 103/158/124 155/225/103
f 112/154/121 148/135/105 158/134/104
f 106/159/125 158/134/104 160/128/100
f 103/226/124 111/224/122 147/139/108
f 98/165/129 150/127/99 151/227/102
f 105/228/127 110/223/119 146/143/112
f 108/160/126 160/128/100 149/129/98
f 97/164/128 149/126/98 150/127/99
